<?xml version="1.0" encoding="UTF-8"?><svg id="_图层_2" xmlns="http://www.w3.org/2000/svg" viewBox="0 0 1013.7 230.6"><defs><style>.cls-1,.cls-2{fill:#fff;}.cls-2{isolation:isolate;opacity:.6;}</style></defs><g id="_图层_1-2"><g><g><path class="cls-1" d="M92.8,76.9L15.9,153.8c-21.2-21.2-21.2-55.6,0-76.9L92.8,0c21.2,21.2,21.2,55.6,0,76.9"/><path class="cls-1" d="M169.6,153.7l-76.9,76.9c-21.2-21.2-21.2-55.6,0-76.9l76.9-76.9c21.2,21.3,21.2,55.7,0,76.9"/><path class="cls-2" d="M15.9,153.7c21.2,21.2,55.6,21.2,76.9,0l-38.4-38.4L15.9,153.7Z"/><path class="cls-2" d="M92.8,76.9l38.4,38.4,38.4-38.4c-21.2-21.3-55.6-21.3-76.8,0"/></g><g><path class="cls-1" d="M244.7,135.3c0-3.5,.5-7.5,1.8-14.7l6.3-36.1c1.8-10.1,4.4-16.2,9.5-19.7,5-3.3,11.3-3.6,16.9-3.6h19.9c16.6,0,23.7,4.4,23.7,17.8,0,3.5-.5,7.5-1.7,14.5l-6.4,36.2c-1.8,10.1-4.3,16.2-9.5,19.7-5,3.3-11.2,3.6-16.8,3.6h-19.9c-16.7,.1-23.8-4.5-23.8-17.7Zm41.8,4.5c9.5,0,11.2-3.8,13.3-15.6l4.5-25.4c1.4-7.7,2.4-13.7,2.4-16.8,0-6.6-4.2-7.5-14.2-7.5h-11.4c-9.5,0-11.3,3.7-13.5,15.6l-4.5,25.4c-1.3,7.6-2.3,13.7-2.3,16.8,0,6.6,4.1,7.5,14.1,7.5h11.6Z"/><path class="cls-1" d="M390.6,100.3c0,2.7-.5,6.7-1.5,12.7l-2.7,16c-1.5,8.7-3.1,14.5-7.5,18.5-4.1,3.6-10.1,4.9-20.4,4.9h-16.7l-3.7,21.1h-14.8l15.7-88.8h30.1c15.3,0,21.5,4.3,21.5,15.6Zm-14.9,2.5c0-5.1-2.6-6.1-10.4-6.1h-13.7l-7.7,43.6h15.5c4.2,0,6.9-.4,8.7-2.4,1.5-1.8,2.5-4.5,3.3-8.9l3-16c1-5.1,1.3-8.1,1.3-10.2Z"/><path class="cls-1" d="M459.5,97.2c0,1.4-.1,3.3-.5,5.2l-1.7,9.4c-1.9,10.6-5.8,14.3-15.7,14.3h-26.2l-.6,3.7c-.4,2-.6,3.9-.6,5.2,0,4.2,2.1,5.1,9.1,5.1h23.9l-4.9,12h-21.9c-15.5,0-21-3.9-21-13.6,0-2.5,.4-5.5,.8-8.3l4.6-26.7c1-5.2,2.4-11.2,6.9-15,4.2-3.6,10.1-4.8,20.4-4.8h8.1c12.6,.1,19.3,3.5,19.3,13.5Zm-14.9,2.4c0-3.1-1.8-3.8-7.3-3.8h-8.5c-5.5,0-8.1,.7-9.4,7.9l-1.9,11h20.3c3.3,0,4.6-1.3,5.1-4.4l1.3-7.7c.3-1.2,.4-2.2,.4-3Z"/><path class="cls-1" d="M528.9,96.8c0,3.6-1,8.8-1.9,14.5l-7.1,40.9h-14.8l7-39.8c1-5.2,1.4-8.5,1.4-10.5,0-3.7-1.9-5-9.9-5h-14.9l-9.7,55.3h-14.8l11.8-67.6h32.4c15.3,.1,20.5,3.4,20.5,12.2Z"/><path class="cls-1" d="M540,134.5c0-3.6,.4-7.5,1.7-14.7l6.2-34.6c1.8-10.1,4.3-16.2,9.5-19.7,5-3.3,11.2-3.6,16.8-3.6h29.8l-5.5,13.2h-22.4c-9.5,0-11.2,3.8-13.3,15.6l-4.3,23.8c-1.4,7.6-2.4,13.6-2.4,16.8,0,6.4,4.2,7.5,14.2,7.5h22.2l-5.6,13.2h-23.1c-16.8,.2-23.8-4.3-23.8-17.5Z"/><path class="cls-1" d="M605.7,139c0-4.1,.8-9.1,1.9-15.1l11.8-66.7h14.8l-11.8,66.7c-1,5.1-1.7,9.1-1.7,11.6,0,4.6,3,4.8,10.7,4.8h6.9l-5.1,12h-8.5c-13.2-.1-19-3.2-19-13.3Z"/><path class="cls-1" d="M646.9,137.5c0-2.7,.5-6.7,1.5-12.7l3.1-17.5c1.5-8.8,3-14.8,7.5-18.6,4.2-3.6,10.1-4.8,20.4-4.8h8.2c15.1,0,21.3,4.2,21.3,15.6,0,2.7-.4,6.6-1.4,12.7l-3.1,17.5c-1.5,8.7-3.2,14.5-7.5,18.5-4.1,3.7-10.1,4.9-20.4,4.9h-8.2c-15.1,0-21.4-4.2-21.4-15.6Zm30.7,3.5c4.2,0,6.9-.2,8.7-2.4,1.4-1.7,2.5-4.4,3.3-8.9l3.1-17.5c1-5.1,1.3-8.1,1.3-10.2,0-5.1-2.6-6.2-10.4-6.2h-5.2c-4.3,0-7,.6-8.8,2.4-1.7,1.7-2.5,4.5-3.3,9.1l-3.1,17.5c-1,5.1-1.4,8.1-1.4,10.2,0,5.1,2.6,6.1,10.4,6.1h5.4v-.1Z"/><path class="cls-1" d="M784.5,84.7l-11.9,67.6h-33.3c-15.1,0-20.3-3.3-20.3-12.2,0-3.6,.8-8.9,1.8-14.5l7.3-40.9h14.8l-7,39.8c-1,5.2-1.4,8.5-1.4,10.5,0,3.6,2,5,9.9,5h15.6l9.8-55.3h14.7Z"/><path class="cls-1" d="M860.4,57.2l-16.8,95.1h-29.9c-15.1,0-21.4-4.3-21.4-15.6,0-2.7,.5-6.7,1.5-12.7l2.7-15.8c1.5-8.7,3.1-14.7,7.5-18.5,4.2-3.7,10.1-4.9,20.4-4.9h16.3l4.9-27.5h14.8v-.1Zm-29.5,83l7.6-43.5h-15c-4.3,0-6.9,.5-8.8,2.4-1.5,1.5-2.5,4.4-3.3,8.9l-2.7,15.8c-.8,5.1-1.4,8.1-1.4,10.2,0,5.1,2.7,6.1,10.5,6.1h13.1v.1Z"/><path class="cls-1" d="M863.6,135.3c0-3.5,.5-7.5,1.8-14.7l6.3-36.1c1.8-10.1,4.4-16.2,9.5-19.7,5-3.3,11.3-3.6,16.9-3.6h19.9c16.6,0,23.7,4.4,23.7,17.8,0,3.5-.5,7.5-1.7,14.5l-6.4,36.2c-1.8,10.1-4.3,16.2-9.5,19.7-5,3.3-11.2,3.6-16.8,3.6h-19.9c-16.7,.1-23.8-4.5-23.8-17.7Zm41.8,4.5c9.5,0,11.2-3.8,13.3-15.6l4.5-25.4c1.4-7.7,2.4-13.7,2.4-16.8,0-6.6-4.2-7.5-14.2-7.5h-11.4c-9.5,0-11.3,3.7-13.5,15.6l-4.5,25.4c-1.3,7.6-2.3,13.7-2.3,16.8,0,6.6,4.1,7.5,14.1,7.5h11.6Z"/><path class="cls-1" d="M946.4,139h30.4c7.9,0,9.1-.8,10.6-9.2l1.2-6.2c.8-4.2,1.1-6.8,1.1-8.1,0-2.6-1.7-2.9-6-2.9h-17.8c-9.7,0-12.9-3.7-12.9-11.2,0-2.6,.5-5.7,1.1-9.2l2.3-12.6c2.5-14.3,7.1-17.6,22-17.6h35.3l-5.5,13.1h-29c-5.5,0-6.4,1.2-7.6,7.3l-1.4,7.4c-.6,3.1-1,5.5-1,6.6,0,2,1.7,2.6,5,2.6h15.2c10.1,0,16.6,1.4,16.6,10.4,0,3.3-1.1,10.4-1.5,12.9l-2.1,11.9c-1.3,7-3.7,12.4-8.1,15.1-4.2,2.6-9.9,3-17.8,3h-27.8l-2.3-13.3Z"/></g></g></g></svg>