<?xml version="1.0" encoding="UTF-8"?><svg id="_图层_2" xmlns="http://www.w3.org/2000/svg" viewBox="0 0 185.5 230.6"><defs><style>.cls-1,.cls-2{fill:#fff;}.cls-2{isolation:isolate;opacity:.6;}</style></defs><g id="_图层_2-2"><g><path class="cls-1" d="M92.8,76.9L15.9,153.8c-21.2-21.2-21.2-55.6,0-76.9L92.8,0c21.2,21.2,21.2,55.6,0,76.9"/><path class="cls-1" d="M169.6,153.7l-76.9,76.9c-21.2-21.2-21.2-55.6,0-76.9l76.9-76.9c21.2,21.3,21.2,55.7,0,76.9"/><path class="cls-2" d="M15.9,153.7c21.2,21.2,55.6,21.2,76.9,0l-38.4-38.4L15.9,153.7Z"/><path class="cls-2" d="M92.8,76.9l38.4,38.4,38.4-38.4c-21.2-21.3-55.6-21.3-76.8,0"/></g></g></svg>